<!DOCTYPE svg PUBLIC "-//W3C//DTD SVG 20010904//EN" "http://www.w3.org/TR/2001/REC-SVG-20010904/DTD/svg10.dtd">
<svg version="1.0" xmlns="http://www.w3.org/2000/svg" width="1024px" height="512px" viewBox="0 0 10240 5120" preserveAspectRatio="xMidYMid meet">
<g id="layer101" fill="#ff4d00" stroke="none">
 <path d="M870 2455 l0 -1125 174 0 174 0 10 48 c5 26 67 385 138 797 70 413 130 753 133 757 3 4 64 -329 135 -740 70 -411 133 -773 138 -804 l10 -58 174 0 174 0 0 1125 0 1125 -115 0 -115 0 -2 -760 -3 -760 -104 598 c-57 328 -110 634 -119 680 l-15 82 -157 0 c-155 0 -158 0 -163 -22 -3 -13 -56 -318 -119 -678 l-113 -654 -3 757 -2 757 -115 0 -115 0 0 -1125z"/>
 <path d="M2330 3465 l0 -115 295 0 295 0 0 -445 0 -445 -235 0 -235 0 0 -120 0 -120 235 0 235 0 0 -330 0 -330 -295 0 -295 0 0 -120 0 -120 410 0 410 0 0 1130 0 1130 -410 0 -410 0 0 -115z"/>
 <path d="M3360 2450 l0 -1130 363 0 362 0 51 29 c28 16 63 45 78 65 54 71 56 88 56 478 0 229 -4 366 -10 379 -6 10 -34 32 -61 48 -46 26 -49 30 -29 36 12 4 40 23 61 42 l39 35 0 472 c-1 367 -4 479 -14 509 -21 57 -62 104 -119 137 l-52 30 -362 0 -363 0 0 -1130z m654 894 c14 -5 16 -54 16 -440 l0 -434 -220 0 -220 0 0 440 0 440 204 0 c112 0 211 -3 220 -6z m0 -1120 c14 -5 16 -44 16 -335 l0 -329 -220 0 -220 0 0 335 0 335 204 0 c112 0 211 -3 220 -6z"/>
 <path d="M4480 2455 l0 -1125 115 0 115 0 0 1010 0 1010 295 0 295 0 0 115 0 115 -410 0 -410 0 0 -1125z"/>
 <path d="M5645 3564 c-60 -31 -94 -65 -122 -121 l-28 -58 0 -936 0 -935 30 -59 c21 -41 45 -69 80 -94 l49 -36 276 -3 c183 -2 288 0 313 8 48 14 112 71 140 124 l22 41 0 955 0 955 -22 40 c-28 52 -78 100 -125 119 -55 23 -569 23 -613 0z m509 -220 c14 -6 16 -94 16 -895 l0 -889 -217 2 -218 3 -3 880 c-2 818 -1 881 15 893 18 13 375 18 407 6z"/>
 <path d="M6886 3558 c-8 -35 -276 -2181 -276 -2206 0 -22 2 -23 117 -20 l118 3 100 862 c55 475 102 863 105 863 3 0 52 -244 109 -542 57 -299 107 -564 113 -590 l10 -48 104 0 c57 0 104 1 104 3 1 1 48 272 105 602 57 330 104 596 104 590 6 -60 193 -1689 197 -1712 l5 -33 120 0 120 0 -6 33 c-5 28 -275 2201 -275 2213 0 2 -72 4 -159 4 -118 0 -160 -3 -164 -12 -2 -7 -40 -219 -83 -470 -43 -251 -80 -456 -81 -454 -2 2 -163 920 -163 931 0 3 -72 5 -160 5 -157 0 -160 0 -164 -22z"/>
 <path d="M8710 3193 l0 -386 -195 -727 c-107 -400 -195 -732 -195 -738 0 -9 35 -12 118 -12 l117 0 135 495 c74 272 137 491 141 487 5 -5 149 -526 267 -964 4 -16 18 -18 123 -18 66 0 119 3 119 7 0 3 -88 333 -195 733 l-195 727 0 391 0 392 -120 0 -120 0 0 -387z"/>
 </g>

</svg>